<svg xmlns="http://www.w3.org/2000/svg" width="136.125" height="52.41" viewBox="0 0 136.125 52.41">
  <metadata><?xpacket begin="﻿" id="W5M0MpCehiHzreSzNTczkc9d"?>
<x:xmpmeta xmlns:x="adobe:ns:meta/" x:xmptk="Adobe XMP Core 5.6-c138 79.159824, 2016/09/14-01:09:01        ">
   <rdf:RDF xmlns:rdf="http://www.w3.org/1999/02/22-rdf-syntax-ns#">
      <rdf:Description rdf:about=""/>
   </rdf:RDF>
</x:xmpmeta>
                                                                                                    
                                                                                                    
                                                                                                    
                                                                                                    
                                                                                                    
                                                                                                    
                                                                                                    
                                                                                                    
                                                                                                    
                                                                                                    
                                                                                                    
                                                                                                    
                                                                                                    
                                                                                                    
                                                                                                    
                                                                                                    
                                                                                                    
                                                                                                    
                                                                                                    
                                                                                                    
                           
<?xpacket end="w"?></metadata>
<defs>
    <style>
      .cls-1 {
        fill: #fff;
        fill-rule: evenodd;
      }
    </style>
  </defs>
  <path id="Экстрим-клуб" class="cls-1" d="M234.521,2169.91l-0.534,3.78h6.548l-2.918,21.09h4.662l2.918-21.09h6.335l1.032-3.78H234.521Zm23.061,25.41a8.891,8.891,0,0,0,5.872-1.89,10.611,10.611,0,0,0,3.274-4.66,16.418,16.418,0,0,0,1-5.58,8.306,8.306,0,0,0-1.975-5.85,7.238,7.238,0,0,0-5.606-2.14,8.877,8.877,0,0,0-5.836,1.87,10.651,10.651,0,0,0-3.292,4.65A16.073,16.073,0,0,0,250,2187.3a8.332,8.332,0,0,0,1.975,5.9,7.259,7.259,0,0,0,5.6,2.12h0Zm0.249-3.49q-3.2,0-3.2-4.17a17.485,17.485,0,0,1,.481-4,8.618,8.618,0,0,1,1.654-3.51,3.825,3.825,0,0,1,3.132-1.46q3.168,0,3.168,4a18.88,18.88,0,0,1-.463,4.07,8.81,8.81,0,0,1-1.637,3.58,3.8,3.8,0,0,1-3.132,1.49h0ZM269.4,2202.7l4.484-.54,1.068-7.41a10.95,10.95,0,0,0,3.488.57,8.5,8.5,0,0,0,5.729-1.92,11.046,11.046,0,0,0,3.257-4.83,17.773,17.773,0,0,0,1.014-5.92,8.747,8.747,0,0,0-1.53-5.51,5.143,5.143,0,0,0-4.271-1.94,7.562,7.562,0,0,0-5.623,2.77l0.036-2.23h-3.915Zm8.9-10.83a8.292,8.292,0,0,1-2.811-.51l1.388-10.26a9.575,9.575,0,0,1,2.01-1.8,4.012,4.012,0,0,1,2.189-.65q2.74,0,2.74,3.93a16.439,16.439,0,0,1-.569,4.28,8.872,8.872,0,0,1-1.815,3.57,3.969,3.969,0,0,1-3.132,1.44h0Zm28.115,2.91,2.633-19.04h-4.484l-1.032,7.6h-6.3l1.032-7.6h-4.484l-2.634,19.04h4.484l1.1-7.95h6.335l-1.139,7.95h4.484Zm15.8-19.58a9.038,9.038,0,0,0-5.943,1.94,11.368,11.368,0,0,0-3.435,4.86,16.73,16.73,0,0,0-1.085,5.87,8.589,8.589,0,0,0,1.584,5.44,5.357,5.357,0,0,0,4.466,2.01,6.827,6.827,0,0,0,5.623-3.24c0.379,1.88,1.673,2.93,3.879,3.17l1.281-3.02a1.771,1.771,0,0,1-.836-0.61,1.808,1.808,0,0,1-.231-0.98c0-.12.023-0.39,0.071-0.82l1.815-12.79a15.293,15.293,0,0,0-7.189-1.83h0Zm-0.071,3.38a6.118,6.118,0,0,1,2.527.51l-1.353,9.72a11.205,11.205,0,0,1-2.064,2.25,3.543,3.543,0,0,1-2.206.77q-2.6,0-2.6-3.96a16.18,16.18,0,0,1,.587-4.3A8.658,8.658,0,0,1,318.9,2180a4.2,4.2,0,0,1,3.239-1.42h0Zm17.51,16.74a8.273,8.273,0,0,0,7.491-3.99q2.51-4.005,2.509-10.66a21.444,21.444,0,0,0-.979-7.22,7.51,7.51,0,0,0-3.594-4.07,19.006,19.006,0,0,0-7.634-1.74l-1,3.24a19.749,19.749,0,0,1,5.551,1.08,4.4,4.4,0,0,1,2.527,2.3,12.071,12.071,0,0,1,.712,4.5v0.18a5.888,5.888,0,0,0-4.733-2.16,7.042,7.042,0,0,0-4.645,1.57,9.443,9.443,0,0,0-2.847,4.05,14.608,14.608,0,0,0-.943,5.22,8.162,8.162,0,0,0,1,4.12,6.78,6.78,0,0,0,2.7,2.67,8.085,8.085,0,0,0,3.88.91h0Zm0.142-3.45a2.761,2.761,0,0,1-2.313-1.05,5.063,5.063,0,0,1-.819-3.16,12.023,12.023,0,0,1,1.086-5.28,3.67,3.67,0,0,1,3.541-2.25,4.189,4.189,0,0,1,3.736,2.23,16.565,16.565,0,0,1-1.352,6.79,4.132,4.132,0,0,1-3.879,2.72h0Zm20.178,3.45a8.889,8.889,0,0,0,5.872-1.89,10.621,10.621,0,0,0,3.275-4.66,16.417,16.417,0,0,0,1-5.58,8.3,8.3,0,0,0-1.975-5.85,7.236,7.236,0,0,0-5.605-2.14,8.878,8.878,0,0,0-5.837,1.87,10.651,10.651,0,0,0-3.292,4.65,16.073,16.073,0,0,0-1.014,5.58,8.332,8.332,0,0,0,1.975,5.9,7.26,7.26,0,0,0,5.605,2.12h0Zm0.249-3.49q-3.2,0-3.2-4.17a17.541,17.541,0,0,1,.481-4,8.619,8.619,0,0,1,1.655-3.51,3.824,3.824,0,0,1,3.132-1.46q3.166,0,3.167,4a18.88,18.88,0,0,1-.463,4.07,8.8,8.8,0,0,1-1.637,3.58,3.8,3.8,0,0,1-3.132,1.49h0Zm-104.362,15.51a4.581,4.581,0,0,0-2.778.95l0.389,0.56a5.249,5.249,0,0,1,1.174-.61,3.326,3.326,0,0,1,1.173-.19,1.817,1.817,0,0,1,1.507.68,3.436,3.436,0,0,1,.534,2.12c0,0.28-.014.58-0.041,0.91h-3.889l-0.1.72h3.9a7.111,7.111,0,0,1-1.041,2.87,2.5,2.5,0,0,1-2.208,1.17,2.613,2.613,0,0,1-1.1-.2,2.979,2.979,0,0,1-.882-0.62l-0.486.53a3.724,3.724,0,0,0,1.055.75,3.262,3.262,0,0,0,1.417.29,3.315,3.315,0,0,0,2.479-.98,5.633,5.633,0,0,0,1.354-2.43,11.01,11.01,0,0,0,.4-2.95,4.053,4.053,0,0,0-.763-2.7,2.648,2.648,0,0,0-2.1-.87h0Zm9.929,2.27a2.58,2.58,0,0,0-.889.48,5.932,5.932,0,0,0-.806.97l-1.291,1.84h-1.083l0.43-3.13h-0.805l-1.028,7.34h0.806l0.514-3.55h1.11l1.82,3.55h0.874l-1.985-3.87,1.166-1.66a7.233,7.233,0,0,1,.722-0.92,2.138,2.138,0,0,1,.708-0.42Zm5.124,0a2.979,2.979,0,0,0-2.048.73,4.261,4.261,0,0,0-1.188,1.82,6.478,6.478,0,0,0-.375,2.14,3.182,3.182,0,0,0,.695,2.19,2.431,2.431,0,0,0,1.916.78,3.468,3.468,0,0,0,2.18-.76l-0.347-.58a3.614,3.614,0,0,1-.868.47,2.745,2.745,0,0,1-.923.15,1.672,1.672,0,0,1-1.34-.55,2.426,2.426,0,0,1-.479-1.65,6.46,6.46,0,0,1,.277-1.85,3.73,3.73,0,0,1,.9-1.57,2.13,2.13,0,0,1,1.59-.63,2.157,2.157,0,0,1,.833.15,2.226,2.226,0,0,1,.681.44l0.458-.52a2.656,2.656,0,0,0-1.958-.76h0Zm11.151,0a3.118,3.118,0,0,0-2.528,1.83,1.922,1.922,0,0,0-.409-1.35,1.436,1.436,0,0,0-1.132-.48c-0.935,0-1.791.66-2.569,1.97l0.194-1.81h-0.694l-1.028,7.34H274.7l0.611-4.39a8.791,8.791,0,0,1,1.2-1.78,1.687,1.687,0,0,1,1.243-.64,0.944,0.944,0,0,1,.958,1.15,3.536,3.536,0,0,1-.042.51l-0.722,5.15h0.806l0.625-4.43a8.6,8.6,0,0,1,1.208-1.75,1.718,1.718,0,0,1,1.236-.63,0.944,0.944,0,0,1,.958,1.15,3.536,3.536,0,0,1-.042.51l-0.722,5.15h0.806l0.736-5.22a3.671,3.671,0,0,0,.041-0.51,1.931,1.931,0,0,0-.409-1.3,1.436,1.436,0,0,0-1.132-.47h0Zm3.222,10.41,0.805-.11,0.417-2.94a4.7,4.7,0,0,0,1.624.3,3.082,3.082,0,0,0,2.16-.76,4.3,4.3,0,0,0,1.208-1.88,7.1,7.1,0,0,0,.368-2.24,3.235,3.235,0,0,0-.576-2.06,1.957,1.957,0,0,0-1.618-.72,3.147,3.147,0,0,0-2.333,1.15l0.069-.99h-0.694Zm2.874-3.44a3.866,3.866,0,0,1-.805-0.07,4.433,4.433,0,0,1-.722-0.22l0.652-4.77a5.119,5.119,0,0,1,1.056-.9,2.187,2.187,0,0,1,1.166-.32,1.368,1.368,0,0,1,1.139.51,2.437,2.437,0,0,1,.4,1.54,6.871,6.871,0,0,1-.284,1.93,3.824,3.824,0,0,1-.938,1.63,2.212,2.212,0,0,1-1.666.67h0Zm7.374,0.69a2.367,2.367,0,0,0,1.52-.54,4.747,4.747,0,0,0,1.174-1.48l-0.195,1.86H298.7l1.028-7.34h-0.806l-0.625,4.49a6.183,6.183,0,0,1-1.187,1.7,2.032,2.032,0,0,1-1.423.63,0.991,0.991,0,0,1-1.056-1.18,2.735,2.735,0,0,1,.028-0.44l0.722-5.2h-0.805l-0.722,5.22a3.325,3.325,0,0,0-.042.51,1.808,1.808,0,0,0,.451,1.31,1.727,1.727,0,0,0,1.271.46h0Zm13.192-7.5h-1.041l-2.764,5.6-1.125-5.6h-1.013l-1.667,7.34h0.778l0.944-4.25c0.148-.72.287-1.49,0.417-2.29l1.166,5.65H305.2l2.791-5.64c-0.092.88-.153,1.63-0.18,2.24l-0.25,4.29h0.777Zm5.707,3.3,0.1-.7h-3.653l-0.111.7h3.666Zm7.305-3.46a2.58,2.58,0,0,0-.889.48,5.937,5.937,0,0,0-.805.97l-1.292,1.84h-1.083l0.431-3.13H317.29l-1.028,7.34h0.806l0.514-3.55h1.111l1.819,3.55h0.875l-1.986-3.87,1.166-1.66a7.233,7.233,0,0,1,.722-0.92,2.134,2.134,0,0,1,.709-0.42Zm7.693,0.16h-4.4l-0.653,3.1c-0.231,1.08-.412,1.84-0.541,2.29a2.931,2.931,0,0,1-.431.97,1.4,1.4,0,0,1-.708.44l0.111,0.68a2.413,2.413,0,0,0,1.1-.57,2.859,2.859,0,0,0,.625-1.17c0.167-.52.38-1.38,0.639-2.57l0.541-2.48h2.819l-0.93,6.65H328.4Zm7.707,0h-0.861l-3.083,6.73-1.236-6.73h-0.861l1.486,7.34h0.306a8.708,8.708,0,0,1-.674,1.12,2.488,2.488,0,0,1-.757.67,4.157,4.157,0,0,1-1.194.43l0.042,0.65a4.191,4.191,0,0,0,2.041-.89,5.992,5.992,0,0,0,1.333-1.92Zm4.471,0.35a2.928,2.928,0,0,0-1.666.53,4.312,4.312,0,0,0-1.264,1.34,6.246,6.246,0,0,1,.542-1.82,3.036,3.036,0,0,1,.916-1.12,4.649,4.649,0,0,1,1.4-.67,11.579,11.579,0,0,0,1.389-.52,4.388,4.388,0,0,0,.9-0.55l-0.347-.61a4.571,4.571,0,0,1-.937.58,11.523,11.523,0,0,1-1.285.45,4.357,4.357,0,0,0-2.208,1.38,4.968,4.968,0,0,0-1.007,2.13,13.106,13.106,0,0,0-.243,2.66,3.8,3.8,0,0,0,.723,2.51,2.446,2.446,0,0,0,1.971.86,2.793,2.793,0,0,0,1.965-.7,3.938,3.938,0,0,0,1.111-1.7,6.35,6.35,0,0,0,.341-2.03,3,3,0,0,0-.611-2,2.1,2.1,0,0,0-1.695-.72h0Zm-1.111,6.46a1.65,1.65,0,0,1-1.409-.69,3.3,3.3,0,0,1-.507-1.96c0-.44.009-0.74,0.028-0.93a4.6,4.6,0,0,1,1.271-1.59,2.6,2.6,0,0,1,1.617-.6,1.422,1.422,0,0,1,1.167.5,2.443,2.443,0,0,1,.4,1.53,6.248,6.248,0,0,1-.244,1.72A3.3,3.3,0,0,1,342,2216a2.017,2.017,0,0,1-1.507.58h0Z" transform="translate(-234 -2167.62)"/>
</svg>
